{
	"asset":{
		"generator":"Khronos glTF Blender I/O v4.1.62",
		"version":"2.0"
	},
	"scene":0,
	"scenes":[
		{
			"name":"Scene",
			"nodes":[
				60
			]
		}
	],
	"nodes":[
		{
			"name":"head_end",
			"rotation":[
				6.885713332849264e-09,
				0,
				0,
				1
			],
			"translation":[
				0,
				4.328136444091797,
				-5.741912900703028e-08
			]
		},
		{
			"children":[
				0
			],
			"name":"head",
			"rotation":[
				-6.8857168855629425e-09,
				0,
				0,
				1
			],
			"translation":[
				0,
				8.656272888183594,
				3.81714926334098e-09
			]
		},
		{
			"children":[
				1
			],
			"name":"neck",
			"rotation":[
				7.621771658250509e-09,
				0,
				0,
				1
			],
			"translation":[
				0,
				2.820768356323242,
				7.015160008450039e-08
			]
		},
		{
			"name":"index_right3_end",
			"rotation":[
				2.267770327080143e-07,
				-1.848675452720272e-07,
				-3.281806129962206e-06,
				1
			],
			"scale":[
				0.9999999403953552,
				1.0000001192092896,
				1
			],
			"translation":[
				4.172325134277344e-07,
				0.4611417353153229,
				4.470348358154297e-08
			]
		},
		{
			"children":[
				3
			],
			"name":"index_right3",
			"rotation":[
				-3.185123489402031e-07,
				3.3248218755943526e-07,
				4.037865892314585e-06,
				1
			],
			"scale":[
				0.9999999403953552,
				0.9999998807907104,
				0.9999999403953552
			],
			"translation":[
				1.8328428268432617e-06,
				0.9222787618637085,
				5.960464477539063e-08
			]
		},
		{
			"children":[
				4
			],
			"name":"index_right2",
			"rotation":[
				-7.450580596923828e-09,
				2.3283064365386963e-08,
				-4.995963536202908e-07,
				1
			],
			"translation":[
				9.164214134216309e-07,
				0.9222790598869324,
				-1.1920928955078125e-07
			]
		},
		{
			"children":[
				5
			],
			"name":"index_right1",
			"rotation":[
				-3.725290742551124e-09,
				-1.0710211384434842e-08,
				-2.534361840389465e-07,
				1
			],
			"scale":[
				0.9999999403953552,
				0.9999998807907104,
				0.9999999403953552
			],
			"translation":[
				1.959502696990967e-06,
				2.075129508972168,
				-1.4230608940124512e-06
			]
		},
		{
			"children":[
				6
			],
			"name":"index_right0",
			"rotation":[
				-0.38982534408569336,
				0.8648211359977722,
				-0.10779988020658493,
				0.2974892258644104
			],
			"scale":[
				1.0000001192092896,
				1.000000238418579,
				0.9999999403953552
			],
			"translation":[
				2.4587206840515137,
				3.131866931915283,
				0.7251607775688171
			]
		},
		{
			"name":"thumb_right3_end",
			"rotation":[
				6.05359673500061e-08,
				3.166496753692627e-08,
				1.3969839507410597e-08,
				1
			],
			"scale":[
				1,
				0.9999999403953552,
				1
			],
			"translation":[
				-1.1548399925231934e-06,
				0.5508550405502319,
				6.556510925292969e-07
			]
		},
		{
			"children":[
				8
			],
			"name":"thumb_right3",
			"rotation":[
				1.0244548320770264e-07,
				-2.561137080192566e-06,
				-1.7350539565086365e-06,
				1
			],
			"translation":[
				4.332512617111206e-06,
				1.101709008216858,
				-3.725290298461914e-07
			]
		},
		{
			"children":[
				9
			],
			"name":"thumb_right2",
			"rotation":[
				-1.6693957149982452e-07,
				4.218891263008118e-06,
				2.888031303882599e-06,
				1
			],
			"translation":[
				8.717179298400879e-07,
				1.3220508098602295,
				3.2782554626464844e-07
			]
		},
		{
			"children":[
				10
			],
			"name":"thumb_right1",
			"rotation":[
				1.9161959130542527e-07,
				-6.211921572685242e-07,
				-3.6135313052909623e-07,
				1
			],
			"scale":[
				1,
				1.0000001192092896,
				1.0000001192092896
			],
			"translation":[
				-2.9802322387695312e-08,
				1.101708173751831,
				1.1920928955078125e-07
			]
		},
		{
			"children":[
				11
			],
			"name":"thumb_right0",
			"rotation":[
				-0.4953509569168091,
				-0.2092256098985672,
				-0.19328592717647552,
				0.8206659555435181
			],
			"scale":[
				0.9999999403953552,
				1,
				0.9999998807907104
			],
			"translation":[
				-0.8002198934555054,
				2.8750858306884766,
				0.4643981158733368
			]
		},
		{
			"name":"middle_right3_end",
			"rotation":[
				-6.798655505235729e-08,
				-2.1904706954956055e-06,
				-1.7508864402770996e-07,
				1
			],
			"scale":[
				1,
				0.9999999403953552,
				0.9999999403953552
			],
			"translation":[
				-7.152557373046875e-07,
				0.5907948017120361,
				1.2516975402832031e-06
			]
		},
		{
			"children":[
				13
			],
			"name":"middle_right3",
			"rotation":[
				2.60770320892334e-07,
				8.014030754566193e-07,
				4.78699803352356e-07,
				1
			],
			"scale":[
				1,
				0.9999998807907104,
				1
			],
			"translation":[
				-3.5762786865234375e-07,
				1.1815893650054932,
				8.940696716308594e-07
			]
		},
		{
			"children":[
				14
			],
			"name":"middle_right2",
			"rotation":[
				-3.110617399215698e-07,
				-9.383076076119323e-07,
				4.470348713425665e-08,
				1
			],
			"scale":[
				0.9999999403953552,
				1,
				0.9999999403953552
			],
			"translation":[
				-8.344650268554688e-07,
				1.1815890073776245,
				-8.940696716308594e-07
			]
		},
		{
			"children":[
				15
			],
			"name":"middle_right1",
			"rotation":[
				4.032626748085022e-07,
				1.1203810572624207e-06,
				-4.321336461998726e-07,
				1
			],
			"scale":[
				1.0000001192092896,
				1,
				1
			],
			"translation":[
				9.5367431640625e-07,
				2.658576011657715,
				5.364418029785156e-07
			]
		},
		{
			"children":[
				16
			],
			"name":"middle_right0",
			"rotation":[
				-0.09110978245735168,
				-0.9609887599945068,
				-0.07525725662708282,
				0.25007209181785583
			],
			"scale":[
				0.9999999403953552,
				0.9999998211860657,
				0.9999999403953552
			],
			"translation":[
				-0.841305136680603,
				3.1318671703338623,
				0.48880162835121155
			]
		},
		{
			"children":[
				7,
				12,
				17
			],
			"name":"arm_right_hand",
			"rotation":[
				0.0717877671122551,
				-0.8750451803207397,
				-0.010957254096865654,
				0.47856298089027405
			],
			"scale":[
				0.9999999403953552,
				0.9999998807907104,
				0.9999999403953552
			],
			"translation":[
				7.450580596923828e-09,
				12.132115364074707,
				7.078051567077637e-07
			]
		},
		{
			"children":[
				18
			],
			"name":"arm_right_bot",
			"rotation":[
				0.06747937947511673,
				-0.4433809816837311,
				0.21301263570785522,
				0.8680354356765747
			],
			"scale":[
				0.9999999403953552,
				1.0000001192092896,
				1.0000001192092896
			],
			"translation":[
				-9.5367431640625e-07,
				13.801297187805176,
				-1.1920928955078125e-06
			]
		},
		{
			"children":[
				19
			],
			"name":"arm_right_top",
			"rotation":[
				-0.1103472039103508,
				-0.04197466000914574,
				0.3476983308792114,
				0.9301438331604004
			],
			"scale":[
				1,
				0.9999999403953552,
				1
			],
			"translation":[
				-4.842877388000488e-08,
				3.3084850311279297,
				1.564621925354004e-06
			]
		},
		{
			"children":[
				20
			],
			"name":"shoulder_right",
			"rotation":[
				-0.30438005924224854,
				3.090164923946759e-08,
				0.7233187556266785,
				0.6198087334632874
			],
			"scale":[
				1.0000001192092896,
				1.0000001192092896,
				1
			],
			"translation":[
				-3.9444470405578613,
				2.5153329372406006,
				0.519711971282959
			]
		},
		{
			"name":"index_left3_end",
			"rotation":[
				7.469206479981949e-07,
				-6.444752216339111e-07,
				-6.677582859992981e-07,
				1
			],
			"scale":[
				1,
				1,
				1.0000001192092896
			],
			"translation":[
				1.1920928955078125e-07,
				0.7256287336349487,
				1.6093254089355469e-06
			]
		},
		{
			"children":[
				22
			],
			"name":"index_left3",
			"rotation":[
				-4.4703489265884855e-07,
				-6.435438990592957e-07,
				9.578652679920197e-07,
				1
			],
			"scale":[
				1,
				0.9999998807907104,
				0.9999999403953552
			],
			"translation":[
				-1.1920928955078125e-07,
				1.4512574672698975,
				-1.1920928955078125e-06
			]
		},
		{
			"children":[
				23
			],
			"name":"index_left2",
			"rotation":[
				-5.923212142988632e-07,
				1.674518102845468e-06,
				-2.1280722251049156e-07,
				1
			],
			"scale":[
				1,
				0.9999998807907104,
				0.9999999403953552
			],
			"translation":[
				1.1920928955078125e-07,
				1.451256275177002,
				-2.1457672119140625e-06
			]
		},
		{
			"children":[
				24
			],
			"name":"index_left1",
			"rotation":[
				5.19677996635437e-07,
				-1.3951212167739868e-06,
				2.793966835668016e-09,
				1
			],
			"scale":[
				1,
				1.0000001192092896,
				1
			],
			"translation":[
				1.0728836059570312e-06,
				3.2653279304504395,
				2.086162567138672e-06
			]
		},
		{
			"children":[
				25
			],
			"name":"index_left0",
			"rotation":[
				0.2478235363960266,
				-0.9423165321350098,
				0.2133638858795166,
				0.0714070200920105
			],
			"scale":[
				1,
				1.0000001192092896,
				1
			],
			"translation":[
				2.735297203063965,
				3.146069288253784,
				1.074073076248169
			]
		},
		{
			"name":"ring_left3_end",
			"rotation":[
				-1.1986121535301208e-06,
				-1.3970536201668438e-05,
				-1.2824310715586762e-06,
				1
			],
			"scale":[
				1.0000001192092896,
				1.0000001192092896,
				1
			],
			"translation":[
				2.682209014892578e-07,
				0.29074954986572266,
				-2.384185791015625e-07
			]
		},
		{
			"children":[
				27
			],
			"name":"ring_left3",
			"rotation":[
				2.7171336114406586e-06,
				2.644304186105728e-05,
				2.3366883397102356e-06,
				1
			],
			"translation":[
				7.748603820800781e-07,
				0.5815002918243408,
				4.76837158203125e-07
			]
		},
		{
			"children":[
				28
			],
			"name":"ring_left2",
			"rotation":[
				-1.9674189388751984e-06,
				1.2811739907192532e-05,
				1.862645149230957e-06,
				1
			],
			"scale":[
				1,
				1,
				0.9999999403953552
			],
			"translation":[
				-4.76837158203125e-07,
				0.5814986824989319,
				1.0728836059570312e-06
			]
		},
		{
			"children":[
				29
			],
			"name":"ring_left1",
			"rotation":[
				9.434298817723175e-07,
				-1.9262311980128288e-05,
				-2.3050233721733093e-06,
				1
			],
			"scale":[
				1,
				0.9999999403953552,
				0.9999999403953552
			],
			"translation":[
				2.2351741790771484e-07,
				1.308372139930725,
				-1.1920928955078125e-07
			]
		},
		{
			"children":[
				30
			],
			"name":"ring_left0",
			"rotation":[
				-0.11549536883831024,
				-0.7375465035438538,
				-0.05549182742834091,
				0.6630284190177917
			],
			"scale":[
				1,
				1,
				1.0000001192092896
			],
			"translation":[
				-1.9131178855895996,
				3.1460678577423096,
				0.0751669853925705
			]
		},
		{
			"name":"thumb_left3_end",
			"rotation":[
				1.1449446191136303e-07,
				-3.508291911202832e-06,
				-2.2007152438163757e-06,
				1
			],
			"scale":[
				1,
				1,
				1.0000001192092896
			],
			"translation":[
				-8.195638656616211e-07,
				0.4390578269958496,
				0
			]
		},
		{
			"children":[
				32
			],
			"name":"thumb_left3",
			"rotation":[
				5.500623601051302e-08,
				8.712987437320407e-06,
				5.448702722787857e-06,
				1
			],
			"scale":[
				1.0000001192092896,
				1,
				1.0000001192092896
			],
			"translation":[
				-5.699694156646729e-07,
				0.8781144618988037,
				0
			]
		},
		{
			"children":[
				33
			],
			"name":"thumb_left2",
			"rotation":[
				-5.647307830258796e-07,
				-5.41098415851593e-07,
				-3.3248215913772583e-07,
				1
			],
			"scale":[
				1,
				0.9999998807907104,
				0.9999999403953552
			],
			"translation":[
				4.6938657760620117e-07,
				1.0537371635437012,
				-3.725290298461914e-07
			]
		},
		{
			"children":[
				34
			],
			"name":"thumb_left1",
			"rotation":[
				1.2951204553246498e-07,
				-1.0998919606208801e-06,
				-6.882473826408386e-07,
				1
			],
			"scale":[
				1,
				1,
				1.0000001192092896
			],
			"translation":[
				-3.3527612686157227e-07,
				0.8781138062477112,
				-4.76837158203125e-07
			]
		},
		{
			"children":[
				35
			],
			"name":"thumb_left0",
			"rotation":[
				-0.4555629789829254,
				-0.5219711065292358,
				-0.30803433060646057,
				0.6520149111747742
			],
			"scale":[
				1,
				1.0000001192092896,
				1.0000001192092896
			],
			"translation":[
				0.592668354511261,
				2.6982967853546143,
				0.37391000986099243
			]
		},
		{
			"name":"middle_left3_end",
			"rotation":[
				1.4483232462225715e-06,
				-5.281522317091003e-05,
				4.203757839604805e-07,
				1
			],
			"scale":[
				0.9999999403953552,
				0.9999999403953552,
				0.9999999403953552
			],
			"translation":[
				2.086162567138672e-07,
				0.3534282445907593,
				1.9222497940063477e-06
			]
		},
		{
			"children":[
				37
			],
			"name":"middle_left3",
			"rotation":[
				-4.866160807637243e-08,
				1.4621154150518123e-05,
				-5.527400048777054e-07,
				1
			],
			"scale":[
				0.9999999403953552,
				0.9999999403953552,
				1
			],
			"translation":[
				-5.960464477539063e-08,
				0.7068592309951782,
				2.5331974029541016e-07
			]
		},
		{
			"children":[
				38
			],
			"name":"middle_left2",
			"rotation":[
				-2.012820914387703e-06,
				4.852501297136769e-05,
				5.989568307995796e-07,
				1
			],
			"scale":[
				1.0000001192092896,
				1,
				1.0000001192092896
			],
			"translation":[
				1.341104507446289e-07,
				0.7068567872047424,
				2.8312206268310547e-07
			]
		},
		{
			"children":[
				39
			],
			"name":"middle_left1",
			"rotation":[
				4.827743396162987e-07,
				-1.1530733900144696e-05,
				-4.0768648545963515e-07,
				1
			],
			"scale":[
				1,
				0.9999999403953552,
				1
			],
			"translation":[
				-5.066394805908203e-07,
				1.5904302597045898,
				1.6540288925170898e-06
			]
		},
		{
			"children":[
				40
			],
			"name":"middle_left0",
			"rotation":[
				0.0018470697104930878,
				-0.9967307448387146,
				0.03855111077427864,
				0.07097990065813065
			],
			"scale":[
				1.0000001192092896,
				1.0000005960464478,
				0.9999999403953552
			],
			"translation":[
				-0.031071171164512634,
				3.1460683345794678,
				1.2829899787902832e-05
			]
		},
		{
			"children":[
				26,
				31,
				36,
				41
			],
			"name":"arm_left_hand",
			"rotation":[
				-0.07137223333120346,
				-0.8826451897621155,
				-0.018350495025515556,
				0.4642271101474762
			],
			"scale":[
				1,
				1.0000003576278687,
				1
			],
			"translation":[
				-1.0654330253601074e-06,
				12.132115364074707,
				-4.116445779800415e-07
			]
		},
		{
			"children":[
				42
			],
			"name":"arm_left_bot",
			"rotation":[
				0.06747941672801971,
				0.4433808922767639,
				-0.21301263570785522,
				0.8680354356765747
			],
			"scale":[
				1,
				0.9999999403953552,
				0.9999999403953552
			],
			"translation":[
				1.1920928955078125e-06,
				13.801301002502441,
				-7.152557373046875e-07
			]
		},
		{
			"children":[
				43
			],
			"name":"arm_left_top",
			"rotation":[
				-0.1103472039103508,
				0.04197469353675842,
				-0.3476983606815338,
				0.9301438331604004
			],
			"scale":[
				1.0000001192092896,
				1,
				0.9999999403953552
			],
			"translation":[
				1.817941665649414e-06,
				3.3084864616394043,
				8.940696716308594e-07
			]
		},
		{
			"children":[
				44
			],
			"name":"shoulder_left",
			"rotation":[
				-0.30438005924224854,
				-3.090164923946759e-08,
				-0.7233187556266785,
				0.6198087334632874
			],
			"scale":[
				1.0000001192092896,
				1.0000001192092896,
				1
			],
			"translation":[
				3.3265366554260254,
				2.5153329372406006,
				0.519711971282959
			]
		},
		{
			"children":[
				2,
				21,
				45
			],
			"name":"body_top2",
			"rotation":[
				1.0992469157145024e-09,
				0,
				0,
				1
			],
			"scale":[
				1,
				0.9999999403953552,
				1
			],
			"translation":[
				0,
				3.41729736328125,
				-2.055753611784894e-08
			]
		},
		{
			"children":[
				46
			],
			"name":"body_top1",
			"rotation":[
				-8.72102212667869e-09,
				0,
				0,
				1
			],
			"translation":[
				0,
				4.100760459899902,
				1.181444986286806e-08
			]
		},
		{
			"children":[
				47
			],
			"name":"body_top0",
			"rotation":[
				-4.547473508864641e-13,
				0,
				0,
				1
			],
			"translation":[
				0,
				3.417300224304199,
				1.790407395674265e-07
			]
		},
		{
			"name":"leg_left_foot_end",
			"rotation":[
				3.378389124009118e-09,
				0,
				0,
				1
			],
			"translation":[
				0,
				8.821460723876953,
				2.028400558629073e-09
			]
		},
		{
			"children":[
				49
			],
			"name":"leg_left_foot",
			"rotation":[
				-1.959062245759924e-09,
				0,
				0,
				1
			],
			"translation":[
				0,
				20.997501373291016,
				4.5811930249328725e-08
			]
		},
		{
			"children":[
				50
			],
			"name":"leg_left_bot",
			"rotation":[
				-1.4188721308983077e-09,
				0,
				0,
				1
			],
			"translation":[
				0,
				25.663618087768555,
				-2.3954498828970827e-08
			]
		},
		{
			"children":[
				51
			],
			"name":"leg_left_top",
			"rotation":[
				0,
				0,
				-1,
				0
			],
			"translation":[
				5.1633148193359375,
				-0.4507675766944885,
				-0.10703795403242111
			]
		},
		{
			"name":"leg_right_foot_end",
			"rotation":[
				0,
				0,
				2.7027105886645586e-08,
				1
			],
			"translation":[
				-9.831842362473253e-08,
				8.821460723876953,
				-1.0261601346428506e-08
			]
		},
		{
			"children":[
				53
			],
			"name":"leg_right_foot",
			"rotation":[
				1.4193268782491941e-09,
				2.2244435153657613e-17,
				-3.838172446535282e-08,
				1
			],
			"translation":[
				-1.1105424846391543e-07,
				20.997501373291016,
				4.5811930249328725e-08
			]
		},
		{
			"children":[
				54
			],
			"name":"leg_right_bot",
			"rotation":[
				-1.4188721308983077e-09,
				1.6110751945234004e-17,
				1.1354618578707232e-08,
				1
			],
			"translation":[
				0,
				25.663618087768555,
				-2.3954498828970827e-08
			]
		},
		{
			"children":[
				55
			],
			"name":"leg_right_top",
			"rotation":[
				0,
				0,
				-1,
				0
			],
			"translation":[
				-4.476276874542236,
				-0.4507675766944885,
				-0.03279852122068405
			]
		},
		{
			"children":[
				48,
				52,
				56
			],
			"name":"body",
			"rotation":[
				-5.006895662518218e-06,
				0,
				0,
				1
			],
			"translation":[
				0,
				55.9333381652832,
				-0.0005603171302936971
			]
		},
		{
			"children":[
				57
			],
			"name":"root",
			"rotation":[
				-0.7071031928062439,
				0,
				0,
				0.7071103453636169
			],
			"scale":[
				1,
				0.9999999403953552,
				1
			],
			"translation":[
				0.30895519256591797,
				0.8021034002304077,
				45.92618179321289
			]
		},
		{
			"mesh":0,
			"name":"out",
			"skin":0
		},
		{
			"children":[
				59,
				58
			],
			"name":"rig",
			"rotation":[
				0.7071068286895752,
				0,
				0,
				0.7071068286895752
			]
		}
	],
	"materials":[
		{
			"doubleSided":true,
			"name":"Material__BossDiffuse_png_002",
			"pbrMetallicRoughness":{
				"roughnessFactor":0.6901613473892212
			}
		},
		{
			"doubleSided":true,
			"name":"Material__BossDiffuse_png_003",
			"pbrMetallicRoughness":{
				"roughnessFactor":0.6901613473892212
			}
		}
	],
	"meshes":[
		{
			"name":"out",
			"primitives":[
				{
					"attributes":{
						"POSITION":0,
						"NORMAL":1,
						"TEXCOORD_0":2,
						"JOINTS_0":3,
						"WEIGHTS_0":4
					},
					"indices":5,
					"material":0
				},
				{
					"attributes":{
						"POSITION":6,
						"NORMAL":7,
						"TEXCOORD_0":8,
						"JOINTS_0":9,
						"WEIGHTS_0":10
					},
					"indices":11,
					"material":1
				}
			]
		}
	],
	"skins":[
		{
			"inverseBindMatrices":12,
			"joints":[
				58,
				57,
				48,
				47,
				46,
				2,
				1,
				0,
				21,
				20,
				19,
				18,
				7,
				6,
				5,
				4,
				3,
				12,
				11,
				10,
				9,
				8,
				17,
				16,
				15,
				14,
				13,
				45,
				44,
				43,
				42,
				26,
				25,
				24,
				23,
				22,
				31,
				30,
				29,
				28,
				27,
				36,
				35,
				34,
				33,
				32,
				41,
				40,
				39,
				38,
				37,
				52,
				51,
				50,
				49,
				56,
				55,
				54,
				53
			],
			"name":"rig"
		}
	],
	"accessors":[
		{
			"bufferView":0,
			"componentType":5126,
			"count":688,
			"max":[
				4.538125991821289,
				40.14324951171875,
				-0.19008123874664307
			],
			"min":[
				-4.538125038146973,
				34.145442962646484,
				-3.368732213973999
			],
			"type":"VEC3"
		},
		{
			"bufferView":1,
			"componentType":5126,
			"count":688,
			"type":"VEC3"
		},
		{
			"bufferView":2,
			"componentType":5126,
			"count":688,
			"type":"VEC2"
		},
		{
			"bufferView":3,
			"componentType":5121,
			"count":688,
			"type":"VEC4"
		},
		{
			"bufferView":4,
			"componentType":5126,
			"count":688,
			"type":"VEC4"
		},
		{
			"bufferView":5,
			"componentType":5123,
			"count":1092,
			"type":"SCALAR"
		},
		{
			"bufferView":6,
			"componentType":5126,
			"count":1044,
			"max":[
				18.11634635925293,
				45.92618179321289,
				7.910990238189697
			],
			"min":[
				-18.11634635925293,
				-45.92618179321289,
				-7.910988807678223
			],
			"type":"VEC3"
		},
		{
			"bufferView":7,
			"componentType":5126,
			"count":1044,
			"type":"VEC3"
		},
		{
			"bufferView":8,
			"componentType":5126,
			"count":1044,
			"type":"VEC2"
		},
		{
			"bufferView":9,
			"componentType":5121,
			"count":1044,
			"type":"VEC4"
		},
		{
			"bufferView":10,
			"componentType":5126,
			"count":1044,
			"type":"VEC4"
		},
		{
			"bufferView":11,
			"componentType":5123,
			"count":5088,
			"type":"SCALAR"
		},
		{
			"bufferView":12,
			"componentType":5126,
			"count":59,
			"type":"MAT4"
		}
	],
	"bufferViews":[
		{
			"buffer":0,
			"byteLength":8256,
			"byteOffset":0,
			"target":34962
		},
		{
			"buffer":0,
			"byteLength":8256,
			"byteOffset":8256,
			"target":34962
		},
		{
			"buffer":0,
			"byteLength":5504,
			"byteOffset":16512,
			"target":34962
		},
		{
			"buffer":0,
			"byteLength":2752,
			"byteOffset":22016,
			"target":34962
		},
		{
			"buffer":0,
			"byteLength":11008,
			"byteOffset":24768,
			"target":34962
		},
		{
			"buffer":0,
			"byteLength":2184,
			"byteOffset":35776,
			"target":34963
		},
		{
			"buffer":0,
			"byteLength":12528,
			"byteOffset":37960,
			"target":34962
		},
		{
			"buffer":0,
			"byteLength":12528,
			"byteOffset":50488,
			"target":34962
		},
		{
			"buffer":0,
			"byteLength":8352,
			"byteOffset":63016,
			"target":34962
		},
		{
			"buffer":0,
			"byteLength":4176,
			"byteOffset":71368,
			"target":34962
		},
		{
			"buffer":0,
			"byteLength":16704,
			"byteOffset":75544,
			"target":34962
		},
		{
			"buffer":0,
			"byteLength":10176,
			"byteOffset":92248,
			"target":34963
		},
		{
			"buffer":0,
			"byteLength":3776,
			"byteOffset":102424
		}
	],
	"buffers":[
		{
			"byteLength":106200,
			"uri":"data:application/octet-stream;base64,"
		}
	]
}
